<svg xmlns="http://www.w3.org/2000/svg" viewBox="0 0 487.67 275.2"><defs><style>.cls-1{fill:#542582;}.cls-2{fill:#0ab5cb;}</style></defs><title>logo-netcare-vertical</title><g id="Capa_2" data-name="Capa 2"><g id="Capa_1-2" data-name="Capa 1"><path class="cls-1" d="M329.34,98.88A7.92,7.92,0,0,1,321.42,91V51.76a7.92,7.92,0,0,1,15.83,0V91a7.91,7.91,0,0,1-7.91,7.92"/><path class="cls-1" d="M252.26,47.76V12c.15-10.26-16-10.28-15.83,0V47.76c-.15,10.26,16,10.28,15.83,0"/><path class="cls-1" d="M272.36,67.92V7.7c.15-10.25-16-10.28-15.83,0V67.92c-.15,10.25,16,10.28,15.83,0"/><path class="cls-1" d="M317.12,117.3V26.51a7.92,7.92,0,1,0-15.83,0V117.3c-.15,10.24,16,10.28,15.83,0"/><path class="cls-1" d="M223,9.17c-12.23-.18-12.23,19,0,18.84,12.23.18,12.23-19,0-18.84"/><path class="cls-2" d="M158.33,99.26h0a7.92,7.92,0,0,1-7.91-7.92V52.14a7.92,7.92,0,1,1,15.83,0v39.2a7.93,7.93,0,0,1-7.92,7.92"/><path class="cls-2" d="M251.13,131.53V95.76a7.92,7.92,0,1,0-15.83,0v35.77a7.92,7.92,0,0,0,15.83,0"/><path class="cls-2" d="M231,135.82V75.6a7.92,7.92,0,1,0-15.83,0v60.22a7.92,7.92,0,0,0,15.83,0"/><path class="cls-2" d="M186.29,117.3V26.51a7.92,7.92,0,1,0-15.83,0V117.3a7.92,7.92,0,0,0,15.83,0"/><path class="cls-2" d="M264.78,115.46a9.43,9.43,0,1,0,9.42,9.43,9.43,9.43,0,0,0-9.42-9.43"/><polygon class="cls-1" points="58.71 273.52 18.17 220.31 18.17 273.52 0 273.52 0 189.83 16.98 189.83 56.19 241.36 56.19 189.83 74.37 189.83 74.37 273.52 58.71 273.52"/><path class="cls-1" d="M152.09,247.82h-44.6c1.8,8.25,7.53,12.55,15.66,12.55,6.1,0,10.53-1.91,15.55-6.58L149.1,263c-6,7.41-14.59,12-26.19,12-19.24,0-33.47-13.51-33.47-33.12v-.24c0-18.3,13-33.36,31.68-33.36,21.4,0,31.21,16.62,31.21,34.79v.24c0,1.8-.12,2.87-.24,4.55m-31-25c-7.53,0-12.43,5.38-13.87,13.63h27.38c-1.07-8.13-5.86-13.63-13.51-13.63"/><path class="cls-1" d="M187.48,274.6c-11.12,0-18.65-4.43-18.65-19.25V225h-7.65V209.44h7.65V193.05H187v16.39h15.07V225H187v27.38c0,4.18,1.8,6.22,5.86,6.22a18.54,18.54,0,0,0,9-2.27v14.58a26.82,26.82,0,0,1-14.35,3.71"/><path class="cls-2" d="M214.58,231.91v-.23c0-24.4,18.77-43.53,44.12-43.53,17.1,0,28.1,7.18,35.51,17.46l-17.46,13.51c-4.78-6-10.28-9.8-18.29-9.8-11.72,0-20,9.92-20,22.11v.25c0,12.55,8.25,22.35,20,22.35,8.73,0,13.87-4.06,18.89-10.16l17.45,12.44c-7.88,10.88-18.53,18.89-37.06,18.89-23.91,0-43.16-18.3-43.16-43.29"/><path class="cls-2" d="M300.19,255v-.24c0-13.39,10.16-20.33,25.35-20.33a49.75,49.75,0,0,1,15.54,2.51v-1.07c0-6.7-4.18-10.52-12.91-10.52a45.59,45.59,0,0,0-17.82,3.58l-4.66-16a64.93,64.93,0,0,1,26.18-5c11.6,0,19.49,2.75,24.63,7.89,4.91,4.78,6.94,11.48,6.94,20.57v37.18H341v-6.69c-4.42,4.9-10.52,8.13-19,8.13-12.32,0-21.76-7.06-21.76-20m41.13-4.9v-3a23.72,23.72,0,0,0-8.85-1.68c-6.58,0-10.4,3.23-10.4,8v.23c0,4.43,3.35,7.06,8,7.06,6.58,0,11.24-4.19,11.24-10.64"/><path class="cls-2" d="M375,208.84h22.72v13c3.7-8.85,9.68-14.59,20.44-14.11v23.91h-1.91c-11.84,0-18.53,6.82-18.53,21.77v20.08H375Z"/><path class="cls-2" d="M422.39,241.48v-.24c0-18.89,13.51-33.84,32.64-33.84,22.36,0,32.64,16.38,32.64,35.39,0,1.44,0,3.11-.12,4.67H444.27c1.79,7,6.93,10.64,14,10.64,5.38,0,9.68-2,14.34-6.58l12.56,10.4c-6.22,7.9-15.19,13.16-28.1,13.16-20.32,0-34.67-13.51-34.67-33.6m44-5.62c-.84-7.17-5-11.72-11.24-11.72-6,0-10,4.66-11.24,11.72Z"/></g></g></svg>