<svg xmlns="http://www.w3.org/2000/svg" viewBox="0 0 739.46 148.2"><defs><style>.cls-1{fill:#542583;}.cls-2{fill:#0fb6cc;}</style></defs><title>logo-netcare-horizontal</title><g id="Capa_2" data-name="Capa 2"><g id="Capa_1-2" data-name="Capa 1"><path class="cls-1" d="M297.18,118.77,255.39,63.91v54.86H236.66V32.47h17.5L294.6,85.61V32.47h18.73v86.3Z"/><path class="cls-1" d="M393.47,92.26h-46c1.85,8.51,7.77,12.95,16.15,12.95,6.29,0,10.85-2,16-6.78l10.72,9.49c-6.16,7.64-15,12.33-27,12.33-19.85,0-34.52-13.93-34.52-34.15v-.25c0-18.86,13.44-34.39,32.67-34.39,22.06,0,32.17,17.14,32.17,35.87v.25C393.71,89.43,393.59,90.54,393.47,92.26ZM361.54,66.5c-7.77,0-12.82,5.55-14.3,14h28.23C374.36,72.17,369.43,66.5,361.54,66.5Z"/><path class="cls-1" d="M430,119.88c-11.47,0-19.24-4.56-19.24-19.85V68.72h-7.88v-16h7.88V35.8h18.74V52.69H445v16H429.46V97c0,4.31,1.85,6.41,6,6.41a19.06,19.06,0,0,0,9.25-2.34v15A27.66,27.66,0,0,1,430,119.88Z"/><path class="cls-1" d="M184.47,102a8.17,8.17,0,0,1-8.16-8.16V53.37a8.16,8.16,0,0,1,16.32,0V93.79A8.16,8.16,0,0,1,184.47,102Z"/><path class="cls-1" d="M105,49.24V12.36c.15-10.58-16.48-10.59-16.33,0V49.24C88.53,59.82,105.16,59.84,105,49.24Z"/><path class="cls-1" d="M125.72,70V7.94c.16-10.57-16.47-10.6-16.32,0V70C109.25,80.6,125.88,80.63,125.72,70Z"/><path class="cls-1" d="M171.88,120.94V27.33a8.17,8.17,0,0,0-16.33,0v93.61C155.4,131.5,172,131.54,171.88,120.94Z"/><path class="cls-1" d="M74.86,9.45c-12.61-.18-12.61,19.62,0,19.44C87.46,29.07,87.46,9.27,74.86,9.45Z"/><rect class="cls-2" y="45.6" width="16.32" height="56.74" rx="8.16"/><rect class="cls-2" x="69.08" y="109.01" width="53.2" height="16.32" rx="8.16" transform="translate(212.85 21.49) rotate(90)"/><rect class="cls-2" x="35.71" y="100.83" width="78.41" height="16.32" rx="8.16" transform="translate(183.91 34.07) rotate(90)"/><rect class="cls-2" x="-26.13" y="65.97" width="109.93" height="16.32" rx="8.16" transform="translate(102.96 45.3) rotate(90)"/><circle class="cls-2" cx="117.91" cy="128.76" r="9.72"/><path class="cls-2" d="M457.89,75.87v-.25c0-25.15,19.36-44.87,45.49-44.87,17.63,0,29,7.4,36.61,18L522,62.68c-4.93-6.17-10.6-10.11-18.86-10.11-12.09,0-20.59,10.23-20.59,22.8v.25c0,12.95,8.5,23,20.59,23,9,0,14.3-4.19,19.47-10.47l18,12.82c-8.13,11.21-19.11,19.47-38.21,19.47C477.74,120.49,457.89,101.63,457.89,75.87Z"/><path class="cls-2" d="M546.16,99.66v-.25c0-13.8,10.48-21,26.14-21a51,51,0,0,1,16,2.59V79.94C588.32,73,584,69.09,575,69.09a46.84,46.84,0,0,0-18.37,3.7l-4.81-16.52a66.85,66.85,0,0,1,27-5.18c12,0,20.09,2.83,25.39,8.14,5.06,4.93,7.15,11.83,7.15,21.2v38.34H588.2v-6.91c-4.56,5.06-10.85,8.39-19.6,8.39C555.9,120.25,546.16,113,546.16,99.66Zm42.41-5V91.52a24.65,24.65,0,0,0-9.12-1.72c-6.78,0-10.73,3.33-10.73,8.26v.24c0,4.57,3.45,7.28,8.26,7.28C583.76,105.58,588.57,101.26,588.57,94.61Z"/><path class="cls-2" d="M623.33,52.08h23.43V65.51c3.82-9.12,10-15,21.08-14.54V75.62h-2c-12.2,0-19.1,7-19.1,22.44v20.71H623.33Z"/><path class="cls-2" d="M672.15,85.73v-.25c0-19.47,13.93-34.88,33.66-34.88,23.05,0,33.65,16.89,33.65,36.49,0,1.48,0,3.2-.12,4.8H694.71c1.85,7.28,7.15,11,14.43,11,5.54,0,10-2.1,14.79-6.78l12.94,10.72c-6.41,8.14-15.65,13.56-29,13.56C687,120.37,672.15,106.44,672.15,85.73Zm45.37-5.79c-.86-7.4-5.18-12.08-11.59-12.08-6.16,0-10.35,4.8-11.59,12.08Z"/></g></g></svg>